<?xml version='1.0' encoding='utf-8'?>
<svg xmlns="http://www.w3.org/2000/svg" width="664" height="114" viewBox="0 0 664 114"><text x="26" y="41" font-size="9" text-anchor="end" fill="#586069" font-family="sans-serif">Mon</text><text x="26" y="65" font-size="9" text-anchor="end" fill="#586069" font-family="sans-serif">Wed</text><text x="26" y="89" font-size="9" text-anchor="end" fill="#586069" font-family="sans-serif">Fri</text><text x="30" y="14" font-size="9" fill="#586069" font-family="sans-serif">Apr</text><text x="42" y="14" font-size="9" fill="#586069" font-family="sans-serif">May</text><text x="90" y="14" font-size="9" fill="#586069" font-family="sans-serif">Jun</text><text x="150" y="14" font-size="9" fill="#586069" font-family="sans-serif">Jul</text><text x="198" y="14" font-size="9" fill="#586069" font-family="sans-serif">Aug</text><text x="258" y="14" font-size="9" fill="#586069" font-family="sans-serif">Sep</text><text x="306" y="14" font-size="9" fill="#586069" font-family="sans-serif">Oct</text><text x="354" y="14" font-size="9" fill="#586069" font-family="sans-serif">Nov</text><text x="414" y="14" font-size="9" fill="#586069" font-family="sans-serif">Dec</text><text x="462" y="14" font-size="9" fill="#586069" font-family="sans-serif">Jan</text><text x="510" y="14" font-size="9" fill="#586069" font-family="sans-serif">Feb</text><text x="558" y="14" font-size="9" fill="#586069" font-family="sans-serif">Mar</text><text x="618" y="14" font-size="9" fill="#586069" font-family="sans-serif">Apr</text><rect x="30" y="20" width="10" height="10" rx="2" fill="#ebedf0" /><rect x="30" y="32" width="10" height="10" rx="2" fill="#ebedf0" /><rect x="30" y="44" width="10" height="10" rx="2" fill="#ebedf0" /><rect x="30" y="56" width="10" height="10" rx="2" fill="#ebedf0" /><rect x="30" y="68" width="10" height="10" rx="2" fill="#ebedf0" /><rect x="30" y="80" width="10" height="10" rx="2" fill="#ebedf0" /><rect x="30" y="92" width="10" height="10" rx="2" fill="#ebedf0" /><rect x="42" y="20" width="10" height="10" rx="2" fill="#ebedf0" /><rect x="42" y="32" width="10" height="10" rx="2" fill="#ebedf0" /><rect x="42" y="44" width="10" height="10" rx="2" fill="#ebedf0" /><rect x="42" y="56" width="10" height="10" rx="2" fill="#ebedf0" /><rect x="42" y="68" width="10" height="10" rx="2" fill="#ebedf0" /><rect x="42" y="80" width="10" height="10" rx="2" fill="#ebedf0" /><rect x="42" y="92" width="10" height="10" rx="2" fill="#ebedf0" /><rect x="54" y="20" width="10" height="10" rx="2" fill="#ebedf0" /><rect x="54" y="32" width="10" height="10" rx="2" fill="#ebedf0" /><rect x="54" y="44" width="10" height="10" rx="2" fill="#ebedf0" /><rect x="54" y="56" width="10" height="10" rx="2" fill="#ebedf0" /><rect x="54" y="68" width="10" height="10" rx="2" fill="#ebedf0" /><rect x="54" y="80" width="10" height="10" rx="2" fill="#ebedf0" /><rect x="54" y="92" width="10" height="10" rx="2" fill="#ebedf0" /><rect x="66" y="20" width="10" height="10" rx="2" fill="#ebedf0" /><rect x="66" y="32" width="10" height="10" rx="2" fill="#ebedf0" /><rect x="66" y="44" width="10" height="10" rx="2" fill="#ebedf0" /><rect x="66" y="56" width="10" height="10" rx="2" fill="#ebedf0" /><rect x="66" y="68" width="10" height="10" rx="2" fill="#ebedf0" /><rect x="66" y="80" width="10" height="10" rx="2" fill="#ebedf0" /><rect x="66" y="92" width="10" height="10" rx="2" fill="#ebedf0" /><rect x="78" y="20" width="10" height="10" rx="2" fill="#ebedf0" /><rect x="78" y="32" width="10" height="10" rx="2" fill="#ebedf0" /><rect x="78" y="44" width="10" height="10" rx="2" fill="#ebedf0" /><rect x="78" y="56" width="10" height="10" rx="2" fill="#ebedf0" /><rect x="78" y="68" width="10" height="10" rx="2" fill="#ebedf0" /><rect x="78" y="80" width="10" height="10" rx="2" fill="#ebedf0" /><rect x="78" y="92" width="10" height="10" rx="2" fill="#ebedf0" /><rect x="90" y="20" width="10" height="10" rx="2" fill="#ebedf0" /><rect x="90" y="32" width="10" height="10" rx="2" fill="#ebedf0" /><rect x="90" y="44" width="10" height="10" rx="2" fill="#ebedf0" /><rect x="90" y="56" width="10" height="10" rx="2" fill="#ebedf0" /><rect x="90" y="68" width="10" height="10" rx="2" fill="#ebedf0" /><rect x="90" y="80" width="10" height="10" rx="2" fill="#ebedf0" /><rect x="90" y="92" width="10" height="10" rx="2" fill="#ebedf0" /><rect x="102" y="20" width="10" height="10" rx="2" fill="#ebedf0" /><rect x="102" y="32" width="10" height="10" rx="2" fill="#ebedf0" /><rect x="102" y="44" width="10" height="10" rx="2" fill="#ebedf0" /><rect x="102" y="56" width="10" height="10" rx="2" fill="#ebedf0" /><rect x="102" y="68" width="10" height="10" rx="2" fill="#ebedf0" /><rect x="102" y="80" width="10" height="10" rx="2" fill="#ebedf0" /><rect x="102" y="92" width="10" height="10" rx="2" fill="#ebedf0" /><rect x="114" y="20" width="10" height="10" rx="2" fill="#ebedf0" /><rect x="114" y="32" width="10" height="10" rx="2" fill="#ebedf0" /><rect x="114" y="44" width="10" height="10" rx="2" fill="#ebedf0" /><rect x="114" y="56" width="10" height="10" rx="2" fill="#ebedf0" /><rect x="114" y="68" width="10" height="10" rx="2" fill="#ebedf0" /><rect x="114" y="80" width="10" height="10" rx="2" fill="#ebedf0" /><rect x="114" y="92" width="10" height="10" rx="2" fill="#ebedf0" /><rect x="126" y="20" width="10" height="10" rx="2" fill="#ebedf0" /><rect x="126" y="32" width="10" height="10" rx="2" fill="#ebedf0" /><rect x="126" y="44" width="10" height="10" rx="2" fill="#ebedf0" /><rect x="126" y="56" width="10" height="10" rx="2" fill="#ebedf0" /><rect x="126" y="68" width="10" height="10" rx="2" fill="#ebedf0" /><rect x="126" y="80" width="10" height="10" rx="2" fill="#ebedf0" /><rect x="126" y="92" width="10" height="10" rx="2" fill="#ebedf0" /><rect x="138" y="20" width="10" height="10" rx="2" fill="#ebedf0" /><rect x="138" y="32" width="10" height="10" rx="2" fill="#ebedf0" /><rect x="138" y="44" width="10" height="10" rx="2" fill="#ebedf0" /><rect x="138" y="56" width="10" height="10" rx="2" fill="#ebedf0" /><rect x="138" y="68" width="10" height="10" rx="2" fill="#ebedf0" /><rect x="138" y="80" width="10" height="10" rx="2" fill="#ebedf0" /><rect x="138" y="92" width="10" height="10" rx="2" fill="#ebedf0" /><rect x="150" y="20" width="10" height="10" rx="2" fill="#ebedf0" /><rect x="150" y="32" width="10" height="10" rx="2" fill="#ebedf0" /><rect x="150" y="44" width="10" height="10" rx="2" fill="#ebedf0" /><rect x="150" y="56" width="10" height="10" rx="2" fill="#ebedf0" /><rect x="150" y="68" width="10" height="10" rx="2" fill="#ebedf0" /><rect x="150" y="80" width="10" height="10" rx="2" fill="#ebedf0" /><rect x="150" y="92" width="10" height="10" rx="2" fill="#ebedf0" /><rect x="162" y="20" width="10" height="10" rx="2" fill="#ebedf0" /><rect x="162" y="32" width="10" height="10" rx="2" fill="#ebedf0" /><rect x="162" y="44" width="10" height="10" rx="2" fill="#ebedf0" /><rect x="162" y="56" width="10" height="10" rx="2" fill="#ebedf0" /><rect x="162" y="68" width="10" height="10" rx="2" fill="#ebedf0" /><rect x="162" y="80" width="10" height="10" rx="2" fill="#ebedf0" /><rect x="162" y="92" width="10" height="10" rx="2" fill="#ebedf0" /><rect x="174" y="20" width="10" height="10" rx="2" fill="#ebedf0" /><rect x="174" y="32" width="10" height="10" rx="2" fill="#ebedf0" /><rect x="174" y="44" width="10" height="10" rx="2" fill="#ebedf0" /><rect x="174" y="56" width="10" height="10" rx="2" fill="#ebedf0" /><rect x="174" y="68" width="10" height="10" rx="2" fill="#ebedf0" /><rect x="174" y="80" width="10" height="10" rx="2" fill="#ebedf0" /><rect x="174" y="92" width="10" height="10" rx="2" fill="#ebedf0" /><rect x="186" y="20" width="10" height="10" rx="2" fill="#ebedf0" /><rect x="186" y="32" width="10" height="10" rx="2" fill="#ebedf0" /><rect x="186" y="44" width="10" height="10" rx="2" fill="#ebedf0" /><rect x="186" y="56" width="10" height="10" rx="2" fill="#ebedf0" /><rect x="186" y="68" width="10" height="10" rx="2" fill="#ebedf0" /><rect x="186" y="80" width="10" height="10" rx="2" fill="#ebedf0" /><rect x="186" y="92" width="10" height="10" rx="2" fill="#ebedf0" /><rect x="198" y="20" width="10" height="10" rx="2" fill="#ebedf0" /><rect x="198" y="32" width="10" height="10" rx="2" fill="#ebedf0" /><rect x="198" y="44" width="10" height="10" rx="2" fill="#ebedf0" /><rect x="198" y="56" width="10" height="10" rx="2" fill="#ebedf0" /><rect x="198" y="68" width="10" height="10" rx="2" fill="#ebedf0" /><rect x="198" y="80" width="10" height="10" rx="2" fill="#ebedf0" /><rect x="198" y="92" width="10" height="10" rx="2" fill="#ebedf0" /><rect x="210" y="20" width="10" height="10" rx="2" fill="#ebedf0" /><rect x="210" y="32" width="10" height="10" rx="2" fill="#ebedf0" /><rect x="210" y="44" width="10" height="10" rx="2" fill="#ebedf0" /><rect x="210" y="56" width="10" height="10" rx="2" fill="#ebedf0" /><rect x="210" y="68" width="10" height="10" rx="2" fill="#ebedf0" /><rect x="210" y="80" width="10" height="10" rx="2" fill="#ebedf0" /><rect x="210" y="92" width="10" height="10" rx="2" fill="#ebedf0" /><rect x="222" y="20" width="10" height="10" rx="2" fill="#ebedf0" /><rect x="222" y="32" width="10" height="10" rx="2" fill="#ebedf0" /><rect x="222" y="44" width="10" height="10" rx="2" fill="#ebedf0" /><rect x="222" y="56" width="10" height="10" rx="2" fill="#ebedf0" /><rect x="222" y="68" width="10" height="10" rx="2" fill="#ebedf0" /><rect x="222" y="80" width="10" height="10" rx="2" fill="#ebedf0" /><rect x="222" y="92" width="10" height="10" rx="2" fill="#ebedf0" /><rect x="234" y="20" width="10" height="10" rx="2" fill="#ebedf0" /><rect x="234" y="32" width="10" height="10" rx="2" fill="#ebedf0" /><rect x="234" y="44" width="10" height="10" rx="2" fill="#ebedf0" /><rect x="234" y="56" width="10" height="10" rx="2" fill="#ebedf0" /><rect x="234" y="68" width="10" height="10" rx="2" fill="#ebedf0" /><rect x="234" y="80" width="10" height="10" rx="2" fill="#ebedf0" /><rect x="234" y="92" width="10" height="10" rx="2" fill="#ebedf0" /><rect x="246" y="20" width="10" height="10" rx="2" fill="#ebedf0" /><rect x="246" y="32" width="10" height="10" rx="2" fill="#ebedf0" /><rect x="246" y="44" width="10" height="10" rx="2" fill="#ebedf0" /><rect x="246" y="56" width="10" height="10" rx="2" fill="#ebedf0" /><rect x="246" y="68" width="10" height="10" rx="2" fill="#ebedf0" /><rect x="246" y="80" width="10" height="10" rx="2" fill="#ebedf0" /><rect x="246" y="92" width="10" height="10" rx="2" fill="#ebedf0" /><rect x="258" y="20" width="10" height="10" rx="2" fill="#ebedf0" /><rect x="258" y="32" width="10" height="10" rx="2" fill="#ebedf0" /><rect x="258" y="44" width="10" height="10" rx="2" fill="#ebedf0" /><rect x="258" y="56" width="10" height="10" rx="2" fill="#ebedf0" /><rect x="258" y="68" width="10" height="10" rx="2" fill="#ebedf0" /><rect x="258" y="80" width="10" height="10" rx="2" fill="#ebedf0" /><rect x="258" y="92" width="10" height="10" rx="2" fill="#ebedf0" /><rect x="270" y="20" width="10" height="10" rx="2" fill="#ebedf0" /><rect x="270" y="32" width="10" height="10" rx="2" fill="#ebedf0" /><rect x="270" y="44" width="10" height="10" rx="2" fill="#ebedf0" /><rect x="270" y="56" width="10" height="10" rx="2" fill="#ebedf0" /><rect x="270" y="68" width="10" height="10" rx="2" fill="#ebedf0" /><rect x="270" y="80" width="10" height="10" rx="2" fill="#ebedf0" /><rect x="270" y="92" width="10" height="10" rx="2" fill="#ebedf0" /><rect x="282" y="20" width="10" height="10" rx="2" fill="#ebedf0" /><rect x="282" y="32" width="10" height="10" rx="2" fill="#ebedf0" /><rect x="282" y="44" width="10" height="10" rx="2" fill="#ebedf0" /><rect x="282" y="56" width="10" height="10" rx="2" fill="#ebedf0" /><rect x="282" y="68" width="10" height="10" rx="2" fill="#ebedf0" /><rect x="282" y="80" width="10" height="10" rx="2" fill="#ebedf0" /><rect x="282" y="92" width="10" height="10" rx="2" fill="#ebedf0" /><rect x="294" y="20" width="10" height="10" rx="2" fill="#ebedf0" /><rect x="294" y="32" width="10" height="10" rx="2" fill="#ebedf0" /><rect x="294" y="44" width="10" height="10" rx="2" fill="#ebedf0" /><rect x="294" y="56" width="10" height="10" rx="2" fill="#ebedf0" /><rect x="294" y="68" width="10" height="10" rx="2" fill="#ebedf0" /><rect x="294" y="80" width="10" height="10" rx="2" fill="#ebedf0" /><rect x="294" y="92" width="10" height="10" rx="2" fill="#ebedf0" /><rect x="306" y="20" width="10" height="10" rx="2" fill="#ebedf0" /><rect x="306" y="32" width="10" height="10" rx="2" fill="#ebedf0" /><rect x="306" y="44" width="10" height="10" rx="2" fill="#ebedf0" /><rect x="306" y="56" width="10" height="10" rx="2" fill="#ebedf0" /><rect x="306" y="68" width="10" height="10" rx="2" fill="#ebedf0" /><rect x="306" y="80" width="10" height="10" rx="2" fill="#ebedf0" /><rect x="306" y="92" width="10" height="10" rx="2" fill="#ebedf0" /><rect x="318" y="20" width="10" height="10" rx="2" fill="#ebedf0" /><rect x="318" y="32" width="10" height="10" rx="2" fill="#ebedf0" /><rect x="318" y="44" width="10" height="10" rx="2" fill="#ebedf0" /><rect x="318" y="56" width="10" height="10" rx="2" fill="#ebedf0" /><rect x="318" y="68" width="10" height="10" rx="2" fill="#ebedf0" /><rect x="318" y="80" width="10" height="10" rx="2" fill="#ebedf0" /><rect x="318" y="92" width="10" height="10" rx="2" fill="#ebedf0" /><rect x="330" y="20" width="10" height="10" rx="2" fill="#ebedf0" /><rect x="330" y="32" width="10" height="10" rx="2" fill="#ebedf0" /><rect x="330" y="44" width="10" height="10" rx="2" fill="#ebedf0" /><rect x="330" y="56" width="10" height="10" rx="2" fill="#ebedf0" /><rect x="330" y="68" width="10" height="10" rx="2" fill="#ebedf0" /><rect x="330" y="80" width="10" height="10" rx="2" fill="#ebedf0" /><rect x="330" y="92" width="10" height="10" rx="2" fill="#ebedf0" /><rect x="342" y="20" width="10" height="10" rx="2" fill="#ebedf0" /><rect x="342" y="32" width="10" height="10" rx="2" fill="#ebedf0" /><rect x="342" y="44" width="10" height="10" rx="2" fill="#ebedf0" /><rect x="342" y="56" width="10" height="10" rx="2" fill="#ebedf0" /><rect x="342" y="68" width="10" height="10" rx="2" fill="#ebedf0" /><rect x="342" y="80" width="10" height="10" rx="2" fill="#ebedf0" /><rect x="342" y="92" width="10" height="10" rx="2" fill="#ebedf0" /><rect x="354" y="20" width="10" height="10" rx="2" fill="#ebedf0" /><rect x="354" y="32" width="10" height="10" rx="2" fill="#ebedf0" /><rect x="354" y="44" width="10" height="10" rx="2" fill="#ebedf0" /><rect x="354" y="56" width="10" height="10" rx="2" fill="#ebedf0" /><rect x="354" y="68" width="10" height="10" rx="2" fill="#ebedf0" /><rect x="354" y="80" width="10" height="10" rx="2" fill="#ebedf0" /><rect x="354" y="92" width="10" height="10" rx="2" fill="#ebedf0" /><rect x="366" y="20" width="10" height="10" rx="2" fill="#ebedf0" /><rect x="366" y="32" width="10" height="10" rx="2" fill="#ebedf0" /><rect x="366" y="44" width="10" height="10" rx="2" fill="#ebedf0" /><rect x="366" y="56" width="10" height="10" rx="2" fill="#ebedf0" /><rect x="366" y="68" width="10" height="10" rx="2" fill="#ebedf0" /><rect x="366" y="80" width="10" height="10" rx="2" fill="#ebedf0" /><rect x="366" y="92" width="10" height="10" rx="2" fill="#ebedf0" /><rect x="378" y="20" width="10" height="10" rx="2" fill="#ebedf0" /><rect x="378" y="32" width="10" height="10" rx="2" fill="#ebedf0" /><rect x="378" y="44" width="10" height="10" rx="2" fill="#ebedf0" /><rect x="378" y="56" width="10" height="10" rx="2" fill="#ebedf0" /><rect x="378" y="68" width="10" height="10" rx="2" fill="#ebedf0" /><rect x="378" y="80" width="10" height="10" rx="2" fill="#ebedf0" /><rect x="378" y="92" width="10" height="10" rx="2" fill="#ebedf0" /><rect x="390" y="20" width="10" height="10" rx="2" fill="#ebedf0" /><rect x="390" y="32" width="10" height="10" rx="2" fill="#ebedf0" /><rect x="390" y="44" width="10" height="10" rx="2" fill="#ebedf0" /><rect x="390" y="56" width="10" height="10" rx="2" fill="#ebedf0" /><rect x="390" y="68" width="10" height="10" rx="2" fill="#ebedf0" /><rect x="390" y="80" width="10" height="10" rx="2" fill="#ebedf0" /><rect x="390" y="92" width="10" height="10" rx="2" fill="#ebedf0" /><rect x="402" y="20" width="10" height="10" rx="2" fill="#ebedf0" /><rect x="402" y="32" width="10" height="10" rx="2" fill="#ebedf0" /><rect x="402" y="44" width="10" height="10" rx="2" fill="#ebedf0" /><rect x="402" y="56" width="10" height="10" rx="2" fill="#ebedf0" /><rect x="402" y="68" width="10" height="10" rx="2" fill="#ebedf0" /><rect x="402" y="80" width="10" height="10" rx="2" fill="#ebedf0" /><rect x="402" y="92" width="10" height="10" rx="2" fill="#ebedf0" /><rect x="414" y="20" width="10" height="10" rx="2" fill="#ebedf0" /><rect x="414" y="32" width="10" height="10" rx="2" fill="#ebedf0" /><rect x="414" y="44" width="10" height="10" rx="2" fill="#ebedf0" /><rect x="414" y="56" width="10" height="10" rx="2" fill="#ebedf0" /><rect x="414" y="68" width="10" height="10" rx="2" fill="#ebedf0" /><rect x="414" y="80" width="10" height="10" rx="2" fill="#ebedf0" /><rect x="414" y="92" width="10" height="10" rx="2" fill="#ebedf0" /><rect x="426" y="20" width="10" height="10" rx="2" fill="#ebedf0" /><rect x="426" y="32" width="10" height="10" rx="2" fill="#ebedf0" /><rect x="426" y="44" width="10" height="10" rx="2" fill="#ebedf0" /><rect x="426" y="56" width="10" height="10" rx="2" fill="#ebedf0" /><rect x="426" y="68" width="10" height="10" rx="2" fill="#ebedf0" /><rect x="426" y="80" width="10" height="10" rx="2" fill="#ebedf0" /><rect x="426" y="92" width="10" height="10" rx="2" fill="#ebedf0" /><rect x="438" y="20" width="10" height="10" rx="2" fill="#ebedf0" /><rect x="438" y="32" width="10" height="10" rx="2" fill="#ebedf0" /><rect x="438" y="44" width="10" height="10" rx="2" fill="#ebedf0" /><rect x="438" y="56" width="10" height="10" rx="2" fill="#ebedf0" /><rect x="438" y="68" width="10" height="10" rx="2" fill="#ebedf0" /><rect x="438" y="80" width="10" height="10" rx="2" fill="#ebedf0" /><rect x="438" y="92" width="10" height="10" rx="2" fill="#ebedf0" /><rect x="450" y="20" width="10" height="10" rx="2" fill="#ebedf0" /><rect x="450" y="32" width="10" height="10" rx="2" fill="#ebedf0" /><rect x="450" y="44" width="10" height="10" rx="2" fill="#ebedf0" /><rect x="450" y="56" width="10" height="10" rx="2" fill="#ebedf0" /><rect x="450" y="68" width="10" height="10" rx="2" fill="#ebedf0" /><rect x="450" y="80" width="10" height="10" rx="2" fill="#ebedf0" /><rect x="450" y="92" width="10" height="10" rx="2" fill="#ebedf0" /><rect x="462" y="20" width="10" height="10" rx="2" fill="#ebedf0" /><rect x="462" y="32" width="10" height="10" rx="2" fill="#ebedf0" /><rect x="462" y="44" width="10" height="10" rx="2" fill="#ebedf0" /><rect x="462" y="56" width="10" height="10" rx="2" fill="#ebedf0" /><rect x="462" y="68" width="10" height="10" rx="2" fill="#ebedf0" /><rect x="462" y="80" width="10" height="10" rx="2" fill="#ebedf0" /><rect x="462" y="92" width="10" height="10" rx="2" fill="#ebedf0" /><rect x="474" y="20" width="10" height="10" rx="2" fill="#ebedf0" /><rect x="474" y="32" width="10" height="10" rx="2" fill="#ebedf0" /><rect x="474" y="44" width="10" height="10" rx="2" fill="#ebedf0" /><rect x="474" y="56" width="10" height="10" rx="2" fill="#ebedf0" /><rect x="474" y="68" width="10" height="10" rx="2" fill="#ebedf0" /><rect x="474" y="80" width="10" height="10" rx="2" fill="#ebedf0" /><rect x="474" y="92" width="10" height="10" rx="2" fill="#ebedf0" /><rect x="486" y="20" width="10" height="10" rx="2" fill="#ebedf0" /><rect x="486" y="32" width="10" height="10" rx="2" fill="#ebedf0" /><rect x="486" y="44" width="10" height="10" rx="2" fill="#ebedf0" /><rect x="486" y="56" width="10" height="10" rx="2" fill="#ebedf0" /><rect x="486" y="68" width="10" height="10" rx="2" fill="#ebedf0" /><rect x="486" y="80" width="10" height="10" rx="2" fill="#ebedf0" /><rect x="486" y="92" width="10" height="10" rx="2" fill="#ebedf0" /><rect x="498" y="20" width="10" height="10" rx="2" fill="#ebedf0" /><rect x="498" y="32" width="10" height="10" rx="2" fill="#ebedf0" /><rect x="498" y="44" width="10" height="10" rx="2" fill="#ebedf0" /><rect x="498" y="56" width="10" height="10" rx="2" fill="#ebedf0" /><rect x="498" y="68" width="10" height="10" rx="2" fill="#ebedf0" /><rect x="498" y="80" width="10" height="10" rx="2" fill="#ebedf0" /><rect x="498" y="92" width="10" height="10" rx="2" fill="#ebedf0" /><rect x="510" y="20" width="10" height="10" rx="2" fill="#ebedf0" /><rect x="510" y="32" width="10" height="10" rx="2" fill="#ebedf0" /><rect x="510" y="44" width="10" height="10" rx="2" fill="#ebedf0" /><rect x="510" y="56" width="10" height="10" rx="2" fill="#ebedf0" /><rect x="510" y="68" width="10" height="10" rx="2" fill="#ebedf0" /><rect x="510" y="80" width="10" height="10" rx="2" fill="#ebedf0" /><rect x="510" y="92" width="10" height="10" rx="2" fill="#ebedf0" /><rect x="522" y="20" width="10" height="10" rx="2" fill="#ebedf0" /><rect x="522" y="32" width="10" height="10" rx="2" fill="#ebedf0" /><rect x="522" y="44" width="10" height="10" rx="2" fill="#ebedf0" /><rect x="522" y="56" width="10" height="10" rx="2" fill="#ebedf0" /><rect x="522" y="68" width="10" height="10" rx="2" fill="#ebedf0" /><rect x="522" y="80" width="10" height="10" rx="2" fill="#ebedf0" /><rect x="522" y="92" width="10" height="10" rx="2" fill="#ebedf0" /><rect x="534" y="20" width="10" height="10" rx="2" fill="#ebedf0" /><rect x="534" y="32" width="10" height="10" rx="2" fill="#ebedf0" /><rect x="534" y="44" width="10" height="10" rx="2" fill="#ebedf0" /><rect x="534" y="56" width="10" height="10" rx="2" fill="#ebedf0" /><rect x="534" y="68" width="10" height="10" rx="2" fill="#fef3e8" /><rect x="534" y="80" width="10" height="10" rx="2" fill="#fef3e8" /><rect x="534" y="92" width="10" height="10" rx="2" fill="#fed7aa" /><rect x="546" y="20" width="10" height="10" rx="2" fill="#fef3e8" /><rect x="546" y="32" width="10" height="10" rx="2" fill="#fef3e8" /><rect x="546" y="44" width="10" height="10" rx="2" fill="#ebedf0" /><rect x="546" y="56" width="10" height="10" rx="2" fill="#ebedf0" /><rect x="546" y="68" width="10" height="10" rx="2" fill="#ebedf0" /><rect x="546" y="80" width="10" height="10" rx="2" fill="#ebedf0" /><rect x="546" y="92" width="10" height="10" rx="2" fill="#fed7aa" /><rect x="558" y="20" width="10" height="10" rx="2" fill="#fed7aa" /><rect x="558" y="32" width="10" height="10" rx="2" fill="#fed7aa" /><rect x="558" y="44" width="10" height="10" rx="2" fill="#fef3e8" /><rect x="558" y="56" width="10" height="10" rx="2" fill="#fef3e8" /><rect x="558" y="68" width="10" height="10" rx="2" fill="#fed7aa" /><rect x="558" y="80" width="10" height="10" rx="2" fill="#ebedf0" /><rect x="558" y="92" width="10" height="10" rx="2" fill="#fb923c" /><rect x="570" y="20" width="10" height="10" rx="2" fill="#fb923c" /><rect x="570" y="32" width="10" height="10" rx="2" fill="#fed7aa" /><rect x="570" y="44" width="10" height="10" rx="2" fill="#fed7aa" /><rect x="570" y="56" width="10" height="10" rx="2" fill="#fed7aa" /><rect x="570" y="68" width="10" height="10" rx="2" fill="#fed7aa" /><rect x="570" y="80" width="10" height="10" rx="2" fill="#fed7aa" /><rect x="570" y="92" width="10" height="10" rx="2" fill="#fef3e8" /><rect x="582" y="20" width="10" height="10" rx="2" fill="#ebedf0" /><rect x="582" y="32" width="10" height="10" rx="2" fill="#ebedf0" /><rect x="582" y="44" width="10" height="10" rx="2" fill="#ebedf0" /><rect x="582" y="56" width="10" height="10" rx="2" fill="#fef3e8" /><rect x="582" y="68" width="10" height="10" rx="2" fill="#ebedf0" /><rect x="582" y="80" width="10" height="10" rx="2" fill="#ebedf0" /><rect x="582" y="92" width="10" height="10" rx="2" fill="#ebedf0" /><rect x="594" y="20" width="10" height="10" rx="2" fill="#fef3e8" /><rect x="594" y="32" width="10" height="10" rx="2" fill="#ebedf0" /><rect x="594" y="44" width="10" height="10" rx="2" fill="#ebedf0" /><rect x="594" y="56" width="10" height="10" rx="2" fill="#fed7aa" /><rect x="594" y="68" width="10" height="10" rx="2" fill="#fed7aa" /><rect x="594" y="80" width="10" height="10" rx="2" fill="#fed7aa" /><rect x="594" y="92" width="10" height="10" rx="2" fill="#fb923c" /><rect x="606" y="20" width="10" height="10" rx="2" fill="#fb923c" /><rect x="606" y="32" width="10" height="10" rx="2" fill="#fed7aa" /><rect x="606" y="44" width="10" height="10" rx="2" fill="#fb923c" /><rect x="606" y="56" width="10" height="10" rx="2" fill="#fb923c" /><rect x="606" y="68" width="10" height="10" rx="2" fill="#fb923c" /><rect x="606" y="80" width="10" height="10" rx="2" fill="#fb923c" /><rect x="606" y="92" width="10" height="10" rx="2" fill="#fb923c" /><rect x="618" y="20" width="10" height="10" rx="2" fill="#fb923c" /><rect x="618" y="32" width="10" height="10" rx="2" fill="#fed7aa" /><rect x="618" y="44" width="10" height="10" rx="2" fill="#fed7aa" /><rect x="618" y="56" width="10" height="10" rx="2" fill="#fed7aa" /><rect x="618" y="68" width="10" height="10" rx="2" fill="#fed7aa" /><rect x="618" y="80" width="10" height="10" rx="2" fill="#fed7aa" /><rect x="618" y="92" width="10" height="10" rx="2" fill="#f97316" /><rect x="630" y="20" width="10" height="10" rx="2" fill="#fb923c" /><rect x="630" y="32" width="10" height="10" rx="2" fill="#fb923c" /><rect x="630" y="44" width="10" height="10" rx="2" fill="#fef3e8" /><rect x="630" y="56" width="10" height="10" rx="2" fill="#ebedf0" /><rect x="630" y="68" width="10" height="10" rx="2" fill="#fef3e8" /><rect x="630" y="80" width="10" height="10" rx="2" fill="#ebedf0" /><rect x="630" y="92" width="10" height="10" rx="2" fill="#ebedf0" /><rect x="642" y="20" width="10" height="10" rx="2" fill="#fb923c" /><rect x="642" y="32" width="10" height="10" rx="2" fill="#fb923c" /><rect x="642" y="44" width="10" height="10" rx="2" fill="#fb923c" /><rect x="642" y="56" width="10" height="10" rx="2" fill="#fed7aa" /><rect x="642" y="68" width="10" height="10" rx="2" fill="#ebedf0" /><rect x="642" y="80" width="10" height="10" rx="2" fill="#ebedf0" /><rect x="642" y="92" width="10" height="10" rx="2" fill="#ebedf0" /></svg>